<svg xmlns="http://www.w3.org/2000/svg" width="1600" height="640" viewBox="0 0 1600 640" role="img" aria-labelledby="title description">
  <title id="title">AI价格雷达 / AI Price Radar</title>
  <desc id="description">AI模型、订阅套餐与API服务报价聚合和比价平台</desc>

  <defs>
    <pattern id="grid" width="64" height="64" patternUnits="userSpaceOnUse">
      <path d="M64 0H0V64" fill="none" stroke="#dce4f0" stroke-width="1" opacity="0.46" />
    </pattern>
    <clipPath id="panelClip">
      <rect x="902" y="84" width="602" height="472" rx="8" />
    </clipPath>
  </defs>

  <rect width="1600" height="640" fill="#f5f7fb" />
  <rect width="1600" height="640" fill="url(#grid)" />
  <rect x="20" y="20" width="1560" height="600" rx="8" fill="none" stroke="#dce4f0" stroke-width="2" />

  <g opacity="0.72">
    <circle cx="1448" cy="80" r="5" fill="#ff7a1a" />
    <circle cx="1470" cy="80" r="5" fill="#10a6ba" />
    <circle cx="1492" cy="80" r="5" fill="#6554c0" />
  </g>

  <g font-family="Inter, 'Noto Sans SC', 'Microsoft YaHei', Arial, sans-serif">
    <g>
      <rect x="96" y="82" width="276" height="38" rx="6" fill="#ffffff" stroke="#cfd8e6" />
      <circle cx="118" cy="101" r="6" fill="#ff7a1a" />
      <text x="136" y="108" font-size="16" font-weight="700" fill="#566074">AI PRICING INTELLIGENCE</text>
    </g>

    <text x="96" y="224" font-size="78" font-weight="800" fill="#181a20">AI价格雷达</text>
    <text x="98" y="276" font-size="31" font-weight="750" fill="#2f6fed">AI PRICE RADAR</text>

    <text x="98" y="350" font-size="27" font-weight="700" fill="#2d3340">聚合 AI 模型、订阅套餐与 API 服务报价</text>
    <text x="98" y="391" font-size="21" font-weight="500" fill="#667084">Compare AI products, subscriptions and API offers in one place.</text>

    <g transform="translate(98 432)">
      <rect width="118" height="38" rx="6" fill="#fff1e8" stroke="#ffc79f" />
      <text x="59" y="25" text-anchor="middle" font-size="15" font-weight="700" fill="#bf4e00">PRICE</text>
      <rect x="130" width="118" height="38" rx="6" fill="#e9f9fb" stroke="#a9dfe6" />
      <text x="189" y="25" text-anchor="middle" font-size="15" font-weight="700" fill="#087989">STOCK</text>
      <rect x="260" width="118" height="38" rx="6" fill="#eef3ff" stroke="#b9caf7" />
      <text x="319" y="25" text-anchor="middle" font-size="15" font-weight="700" fill="#2f6fed">SOURCE</text>
      <rect x="390" width="118" height="38" rx="6" fill="#eef9f3" stroke="#aedcc5" />
      <text x="449" y="25" text-anchor="middle" font-size="15" font-weight="700" fill="#147d4f">FEEDBACK</text>
    </g>

    <g transform="translate(98 506)">
      <rect width="250" height="58" rx="8" fill="#181a20" />
      <circle cx="30" cy="29" r="11" fill="none" stroke="#ffffff" stroke-width="2" />
      <path d="M19 29h22M30 18c5 6 5 16 0 22M30 18c-5 6-5 16 0 22" fill="none" stroke="#ffffff" stroke-width="1.5" />
      <text x="54" y="36" font-size="20" font-weight="750" fill="#ffffff">AIRADAR.INK</text>
    </g>
  </g>

  <g clip-path="url(#panelClip)">
    <circle cx="1450" cy="170" r="235" fill="none" stroke="#10a6ba" stroke-width="2" opacity="0.12" />
    <circle cx="1450" cy="170" r="170" fill="none" stroke="#2f6fed" stroke-width="2" opacity="0.12" />
    <circle cx="1450" cy="170" r="105" fill="none" stroke="#ff7a1a" stroke-width="2" opacity="0.15" />
    <path d="M1450 170L1278 39A216 216 0 0 1 1534 0Z" fill="#ff7a1a" opacity="0.06" />
  </g>

  <g font-family="Inter, Arial, sans-serif">
    <rect x="902" y="84" width="602" height="472" rx="8" fill="#ffffff" stroke="#c8d2df" stroke-width="2" />
    <rect x="902" y="84" width="602" height="64" rx="8" fill="#181a20" />
    <rect x="902" y="140" width="602" height="8" fill="#181a20" />
    <text x="930" y="124" font-size="18" font-weight="750" fill="#ffffff">LIVE PRICE OVERVIEW</text>
    <circle cx="1446" cy="116" r="6" fill="#35c47c" />
    <text x="1460" y="122" font-size="12" font-weight="700" fill="#ffffff">ONLINE</text>

    <g transform="translate(930 174)">
      <rect width="154" height="58" rx="8" fill="#fff7f1" stroke="#ffd4b5" />
      <text x="16" y="22" font-size="11" font-weight="700" fill="#7a8290">COVERAGE</text>
      <text x="16" y="44" font-size="18" font-weight="800" fill="#181a20">5 CATEGORIES</text>

      <rect x="168" width="154" height="58" rx="8" fill="#f1fbfc" stroke="#bce5ea" />
      <text x="184" y="22" font-size="11" font-weight="700" fill="#7a8290">UPDATES</text>
      <text x="184" y="44" font-size="18" font-weight="800" fill="#181a20">LIVE TRACKING</text>

      <rect x="336" width="154" height="58" rx="8" fill="#f3f6ff" stroke="#c7d4f5" />
      <text x="352" y="22" font-size="11" font-weight="700" fill="#7a8290">DECISIONS</text>
      <text x="352" y="44" font-size="18" font-weight="800" fill="#181a20">COMPARE FIRST</text>
    </g>

    <g transform="translate(930 266)">
      <text x="0" y="0" font-size="11" font-weight="700" fill="#7a8290">CATEGORY</text>
      <text x="238" y="0" font-size="11" font-weight="700" fill="#7a8290">OFFER RANGE</text>
      <text x="440" y="0" font-size="11" font-weight="700" fill="#7a8290">STATUS</text>

      <g transform="translate(0 24)">
        <circle cx="9" cy="8" r="8" fill="#ff7a1a" />
        <text x="28" y="14" font-size="16" font-weight="750" fill="#181a20">OpenAI</text>
        <rect x="238" y="2" width="150" height="12" rx="6" fill="#edf0f5" />
        <rect x="238" y="2" width="122" height="12" rx="6" fill="#ff7a1a" />
        <text x="440" y="14" font-size="13" font-weight="700" fill="#147d4f">TRACKED</text>
      </g>
      <line x1="0" y1="58" x2="544" y2="58" stroke="#e4e9f1" />

      <g transform="translate(0 76)">
        <circle cx="9" cy="8" r="8" fill="#ff4f72" />
        <text x="28" y="14" font-size="16" font-weight="750" fill="#181a20">Claude</text>
        <rect x="238" y="2" width="150" height="12" rx="6" fill="#edf0f5" />
        <rect x="238" y="2" width="94" height="12" rx="6" fill="#ff4f72" />
        <text x="440" y="14" font-size="13" font-weight="700" fill="#147d4f">TRACKED</text>
      </g>
      <line x1="0" y1="110" x2="544" y2="110" stroke="#e4e9f1" />

      <g transform="translate(0 128)">
        <circle cx="9" cy="8" r="8" fill="#6554c0" />
        <text x="28" y="14" font-size="16" font-weight="750" fill="#181a20">Gemini</text>
        <rect x="238" y="2" width="150" height="12" rx="6" fill="#edf0f5" />
        <rect x="238" y="2" width="109" height="12" rx="6" fill="#6554c0" />
        <text x="440" y="14" font-size="13" font-weight="700" fill="#147d4f">TRACKED</text>
      </g>
      <line x1="0" y1="162" x2="544" y2="162" stroke="#e4e9f1" />

      <g transform="translate(0 180)">
        <circle cx="9" cy="8" r="8" fill="#10a6ba" />
        <text x="28" y="14" font-size="16" font-weight="750" fill="#181a20">Grok</text>
        <rect x="238" y="2" width="150" height="12" rx="6" fill="#edf0f5" />
        <rect x="238" y="2" width="70" height="12" rx="6" fill="#10a6ba" />
        <text x="440" y="14" font-size="13" font-weight="700" fill="#147d4f">TRACKED</text>
      </g>
      <line x1="0" y1="214" x2="544" y2="214" stroke="#e4e9f1" />

      <g transform="translate(0 232)">
        <circle cx="9" cy="8" r="8" fill="#1f9d63" />
        <text x="28" y="14" font-size="16" font-weight="750" fill="#181a20">API Services</text>
        <rect x="238" y="2" width="150" height="12" rx="6" fill="#edf0f5" />
        <rect x="238" y="2" width="132" height="12" rx="6" fill="#1f9d63" />
        <text x="440" y="14" font-size="13" font-weight="700" fill="#147d4f">TRACKED</text>
      </g>
    </g>
  </g>
</svg>
