<svg xmlns="http://www.w3.org/2000/svg" width="1600" height="640" viewBox="0 0 1600 640" role="img" aria-labelledby="title description">
  <title id="title">AI价格雷达中文项目简介</title>
  <desc id="description">AI模型、订阅套餐与API服务报价聚合和比价平台，官网airadar.ink</desc>

  <defs>
    <pattern id="grid" width="64" height="64" patternUnits="userSpaceOnUse">
      <path d="M64 0H0V64" fill="none" stroke="#dce4f0" stroke-width="1" opacity="0.42" />
    </pattern>
  </defs>

  <rect width="1600" height="640" fill="#f6f8fb" />
  <rect y="160" width="1600" height="480" fill="url(#grid)" />
  <rect x="20" y="20" width="1560" height="600" rx="8" fill="none" stroke="#d3dce8" stroke-width="2" />

  <g font-family="Inter, 'Noto Sans SC', 'Microsoft YaHei', Arial, sans-serif">
    <path d="M20 28a8 8 0 0 1 8-8h1544a8 8 0 0 1 8 8v132H20Z" fill="#181a20" />
    <circle cx="102" cy="69" r="7" fill="#ff7a1a" />
    <text x="122" y="77" font-size="20" font-weight="700" fill="#ffffff">AI价格雷达官方网站</text>
    <text x="94" y="129" font-size="48" font-weight="800" fill="#ffffff">airadar.ink</text>

    <g transform="translate(1260 49)">
      <rect width="246" height="70" rx="8" fill="#ff7a1a" />
      <text x="104" y="45" text-anchor="middle" font-size="23" font-weight="800" fill="#ffffff">立即访问官网</text>
      <path d="M190 26l18 9-18 9M206 35h-28" fill="none" stroke="#ffffff" stroke-width="3" stroke-linecap="round" stroke-linejoin="round" />
    </g>

    <g transform="translate(94 216)">
      <rect width="180" height="38" rx="6" fill="#fff1e8" stroke="#ffc79f" />
      <text x="90" y="26" text-anchor="middle" font-size="16" font-weight="750" fill="#bf4e00">AI 报价聚合平台</text>

      <text x="0" y="122" font-size="76" font-weight="850" fill="#181a20">AI价格雷达</text>
      <text x="2" y="177" font-size="31" font-weight="750" fill="#2f6fed">让分散的 AI 报价，一眼可比</text>
      <text x="2" y="224" font-size="23" font-weight="550" fill="#566074">聚合模型订阅、账号服务与 API 报价</text>

      <g transform="translate(2 262)">
        <rect width="124" height="42" rx="6" fill="#fff1e8" stroke="#ffc79f" />
        <text x="62" y="28" text-anchor="middle" font-size="16" font-weight="750" fill="#bf4e00">价格对比</text>
        <rect x="138" width="124" height="42" rx="6" fill="#e9f9fb" stroke="#a9dfe6" />
        <text x="200" y="28" text-anchor="middle" font-size="16" font-weight="750" fill="#087989">库存状态</text>
        <rect x="276" width="124" height="42" rx="6" fill="#eef3ff" stroke="#b9caf7" />
        <text x="338" y="28" text-anchor="middle" font-size="16" font-weight="750" fill="#2f6fed">来源追踪</text>
        <rect x="414" width="124" height="42" rx="6" fill="#eef9f3" stroke="#aedcc5" />
        <text x="476" y="28" text-anchor="middle" font-size="16" font-weight="750" fill="#147d4f">用户反馈</text>
      </g>

      <text x="2" y="357" font-size="17" font-weight="650" fill="#667084">信息聚合 · 原站核验 · 平台不参与交易</text>
    </g>

    <g transform="translate(842 208)">
      <circle cx="614" cy="36" r="156" fill="none" stroke="#10a6ba" stroke-width="2" opacity="0.12" />
      <circle cx="614" cy="36" r="102" fill="none" stroke="#ff7a1a" stroke-width="2" opacity="0.14" />

      <rect width="662" height="356" rx="8" fill="#ffffff" stroke="#c8d2df" stroke-width="2" />
      <path d="M8 0h646a8 8 0 0 1 8 8v56H0V8a8 8 0 0 1 8-8Z" fill="#181a20" />
      <text x="28" y="40" font-size="21" font-weight="800" fill="#ffffff">实时报价概览</text>
      <circle cx="581" cy="32" r="6" fill="#35c47c" />
      <text x="597" y="39" font-size="14" font-weight="700" fill="#ffffff">持续更新</text>

      <g transform="translate(28 84)">
        <rect width="180" height="60" rx="8" fill="#fff7f1" stroke="#ffd4b5" />
        <text x="16" y="24" font-size="13" font-weight="700" fill="#7a8290">收录范围</text>
        <text x="16" y="47" font-size="19" font-weight="850" fill="#181a20">多类目报价</text>

        <rect x="194" width="180" height="60" rx="8" fill="#f1fbfc" stroke="#bce5ea" />
        <text x="210" y="24" font-size="13" font-weight="700" fill="#7a8290">数据状态</text>
        <text x="210" y="47" font-size="19" font-weight="850" fill="#181a20">持续更新</text>

        <rect x="388" width="218" height="60" rx="8" fill="#f3f6ff" stroke="#c7d4f5" />
        <text x="404" y="24" font-size="13" font-weight="700" fill="#7a8290">使用方式</text>
        <text x="404" y="47" font-size="19" font-weight="850" fill="#181a20">先比价，再核验</text>
      </g>

      <g transform="translate(28 177)">
        <text x="0" y="0" font-size="13" font-weight="700" fill="#7a8290">服务类别</text>
        <text x="262" y="0" font-size="13" font-weight="700" fill="#7a8290">报价分布</text>
        <text x="536" y="0" font-size="13" font-weight="700" fill="#7a8290">状态</text>

        <g transform="translate(0 25)">
          <circle cx="9" cy="8" r="8" fill="#ff7a1a" />
          <text x="28" y="15" font-size="17" font-weight="750" fill="#181a20">模型订阅</text>
          <rect x="262" y="2" width="208" height="13" rx="6" fill="#edf0f5" />
          <rect x="262" y="2" width="172" height="13" rx="6" fill="#ff7a1a" />
          <text x="536" y="15" font-size="14" font-weight="750" fill="#147d4f">跟踪中</text>
        </g>
        <line x1="0" y1="58" x2="606" y2="58" stroke="#e4e9f1" />

        <g transform="translate(0 74)">
          <circle cx="9" cy="8" r="8" fill="#ff4f72" />
          <text x="28" y="15" font-size="17" font-weight="750" fill="#181a20">账号服务</text>
          <rect x="262" y="2" width="208" height="13" rx="6" fill="#edf0f5" />
          <rect x="262" y="2" width="138" height="13" rx="6" fill="#ff4f72" />
          <text x="536" y="15" font-size="14" font-weight="750" fill="#147d4f">跟踪中</text>
        </g>
        <line x1="0" y1="107" x2="606" y2="107" stroke="#e4e9f1" />

        <g transform="translate(0 123)">
          <circle cx="9" cy="8" r="8" fill="#6554c0" />
          <text x="28" y="15" font-size="17" font-weight="750" fill="#181a20">API 中转</text>
          <rect x="262" y="2" width="208" height="13" rx="6" fill="#edf0f5" />
          <rect x="262" y="2" width="184" height="13" rx="6" fill="#6554c0" />
          <text x="536" y="15" font-size="14" font-weight="750" fill="#147d4f">跟踪中</text>
        </g>
        <line x1="0" y1="156" x2="606" y2="156" stroke="#e4e9f1" />

        <g transform="translate(0 172)">
          <circle cx="9" cy="8" r="8" fill="#10a6ba" />
          <text x="28" y="15" font-size="17" font-weight="750" fill="#181a20">接码服务</text>
          <rect x="262" y="2" width="208" height="13" rx="6" fill="#edf0f5" />
          <rect x="262" y="2" width="112" height="13" rx="6" fill="#10a6ba" />
          <text x="536" y="15" font-size="14" font-weight="750" fill="#147d4f">跟踪中</text>
        </g>
      </g>
    </g>
  </g>
</svg>
